<?xml version="1.0" encoding="utf-8"?>
<!-- Generator: Adobe Illustrator 26.0.0, SVG Export Plug-In . SVG Version: 6.00 Build 0)  -->
<svg version="1.1" id="Camada_1" xmlns="http://www.w3.org/2000/svg" xmlns:xlink="http://www.w3.org/1999/xlink" x="0px" y="0px"
	 viewBox="0 0 2000 503" style="enable-background:new 0 0 2000 503;" xml:space="preserve">
<g>
	<path d="M92.1,253.6c-5.6,0-10.8-1.4-15.4-4.2c-4.7-2.8-8.4-6.6-11.2-11.2c-2.8-4.7-4.2-9.8-4.2-15.4v-98.2
		c0-5.6,1.4-10.8,4.2-15.4c2.8-4.7,6.6-8.4,11.2-11.2c4.7-2.8,9.8-4.2,15.4-4.2h98c5.6,0,10.8,1.4,15.6,4.2
		c4.7,2.8,8.5,6.6,11.3,11.2c2.8,4.7,4.2,9.8,4.2,15.4v12.4h-29.6v-11.1c0-0.7-0.3-1.4-0.9-1.9c-0.6-0.5-1.3-0.8-2-0.8H93.2
		c-0.7,0-1.4,0.3-1.9,0.8c-0.5,0.5-0.8,1.1-0.8,1.9v95.6c0,0.7,0.3,1.4,0.8,1.9c0.5,0.5,1.1,0.8,1.9,0.8h95.6c0.7,0,1.4-0.3,2-0.8
		c0.6-0.5,0.9-1.1,0.9-1.9v-28.9h-36.2v-29.6h65.8v59.8c0,5.6-1.4,10.8-4.2,15.4c-2.8,4.7-6.6,8.4-11.3,11.2
		c-4.7,2.8-9.9,4.2-15.6,4.2H92.1z"/>
	<path d="M268.3,253.6v-160h147.3v29.6H297.9v35.6h94.7v29.8h-94.7v35.6h117.8v29.6H268.3z"/>
	<path d="M460.3,253.6V93.8h128.9c5.6,0,10.8,1.4,15.6,4.2c4.7,2.8,8.5,6.6,11.3,11.2c2.8,4.7,4.2,9.8,4.2,15.4v43.1
		c0,5.6-1.4,10.8-4.2,15.6c-2.8,4.7-6.6,8.5-11.3,11.2c-4.7,2.7-9.9,4.1-15.6,4.1l-99.6,0.2v54.7H460.3z M492.3,169.2h95.6
		c0.7,0,1.4-0.2,2-0.7c0.6-0.4,0.9-1,0.9-1.8v-40.9c0-0.7-0.3-1.4-0.9-1.9c-0.6-0.5-1.3-0.8-2-0.8h-95.6c-0.7,0-1.4,0.3-1.9,0.8
		c-0.5,0.5-0.8,1.1-0.8,1.9v40.9c0,0.7,0.3,1.3,0.8,1.8C490.9,168.9,491.6,169.2,492.3,169.2z M587.9,253.6l-48.2-57.6h38.4
		l41.8,49.3v8.2H587.9z"/>
	<path d="M666.3,124.5c0-5.6,1.4-10.8,4.2-15.4c2.8-4.7,6.6-8.4,11.2-11.2c4.7-2.8,9.8-4.2,15.4-4.2h98c5.6,0,10.8,1.4,15.6,4.2
		c4.7,2.8,8.5,6.6,11.3,11.2c2.8,4.7,4.2,9.8,4.2,15.4v129.1h-29.6v-53.8H695.7v53.8h-29.3V124.5z M796.8,170.5v-44.7
		c0-0.7-0.3-1.4-0.9-1.9c-0.6-0.5-1.3-0.8-2-0.8h-95.6c-0.7,0-1.4,0.3-1.9,0.8c-0.5,0.5-0.8,1.1-0.8,1.9v44.7H796.8z"/>
	<path d="M874.3,253.6v-160h128.9c5.6,0,10.8,1.4,15.6,4.2c4.7,2.8,8.5,6.6,11.3,11.2c2.8,4.7,4.2,9.8,4.2,15.4v98.2
		c0,5.6-1.4,10.8-4.2,15.4c-2.8,4.7-6.6,8.4-11.3,11.2c-4.7,2.8-9.9,4.2-15.6,4.2H874.3z M906.1,224.1h95.8c0.7,0,1.4-0.3,2-0.8
		c0.6-0.5,0.9-1.1,0.9-1.9v-95.6c0-0.7-0.3-1.4-0.9-1.9c-0.6-0.5-1.3-0.8-2-0.8h-95.8c-0.7,0-1.4,0.3-1.9,0.8
		c-0.5,0.5-0.8,1.1-0.8,1.9v95.6c0,0.7,0.3,1.4,0.8,1.9C904.7,223.8,905.4,224.1,906.1,224.1z"/>
	<path d="M1236.8,109.1c-2.8-4.7-6.6-8.4-11.2-11.2c-1.5-0.9-3.1-1.7-4.8-2.3V65.8c0-31.1-27.5-56.4-61.3-56.4
		c-33.8,0-61.3,25.3-61.3,56.4v31c-0.6,0.3-1.2,0.6-1.8,1c-4.7,2.8-8.4,6.6-11.2,11.2c-2.8,4.7-4.2,9.8-4.2,15.4v98.2
		c0,5.6,1.4,10.8,4.2,15.4c2.8,4.7,6.6,8.4,11.2,11.2c4.7,2.8,9.8,4.2,15.4,4.2h98.2c5.6,0,10.8-1.4,15.4-4.2
		c4.7-2.8,8.4-6.6,11.2-11.2s4.2-9.8,4.2-15.4v-98.2C1241,118.9,1239.6,113.7,1236.8,109.1z M1126.8,65.8
		c0-15.8,14.6-28.6,32.7-28.6c18,0,32.7,12.8,32.7,28.6v27.8h-65.3V65.8z M1211.4,221.4c0,0.8-0.3,1.4-0.9,1.9
		c-0.6,0.5-1.3,0.8-2,0.8H1113c-0.7,0-1.4-0.3-1.9-0.8c-0.5-0.5-0.8-1.1-0.8-1.9v-95.6c0-0.7,0.3-1.4,0.8-1.9
		c0.5-0.5,1.2-0.8,1.9-0.8h95.6c0.7,0,1.4,0.3,2,0.8c0.6,0.5,0.9,1.1,0.9,1.9V221.4z"/>
	<path d="M1287.7,253.6V93.8h128.9c5.6,0,10.8,1.4,15.6,4.2c4.7,2.8,8.5,6.6,11.3,11.2c2.8,4.7,4.2,9.8,4.2,15.4v43.1
		c0,5.6-1.4,10.8-4.2,15.6c-2.8,4.7-6.6,8.5-11.3,11.2c-4.7,2.7-9.9,4.1-15.6,4.1l-99.6,0.2v54.7H1287.7z M1319.7,169.2h95.6
		c0.7,0,1.4-0.2,2-0.7c0.6-0.4,0.9-1,0.9-1.8v-40.9c0-0.7-0.3-1.4-0.9-1.9c-0.6-0.5-1.3-0.8-2-0.8h-95.6c-0.7,0-1.4,0.3-1.9,0.8
		c-0.5,0.5-0.8,1.1-0.8,1.9v40.9c0,0.7,0.3,1.3,0.8,1.8C1318.3,168.9,1318.9,169.2,1319.7,169.2z M1415.2,253.6l-48.2-57.6h38.4
		l41.8,49.3v8.2H1415.2z"/>
	<path d="M1583.9,253.6v-160h128.9c5.6,0,10.8,1.4,15.6,4.2c4.7,2.8,8.5,6.6,11.3,11.2c2.8,4.7,4.2,9.8,4.2,15.4v98.2
		c0,5.6-1.4,10.8-4.2,15.4c-2.8,4.7-6.6,8.4-11.3,11.2c-4.7,2.8-9.9,4.2-15.6,4.2H1583.9z M1615.7,224.1h95.8c0.7,0,1.4-0.3,2-0.8
		c0.6-0.5,0.9-1.1,0.9-1.9v-95.6c0-0.7-0.3-1.4-0.9-1.9c-0.6-0.5-1.3-0.8-2-0.8h-95.8c-0.7,0-1.4,0.3-1.9,0.8
		c-0.5,0.5-0.8,1.1-0.8,1.9v95.6c0,0.7,0.3,1.4,0.8,1.9C1614.3,223.8,1614.9,224.1,1615.7,224.1z"/>
	<path d="M1791.5,253.6v-160h147.3v29.6H1821v35.6h94.7v29.8H1821v35.6h117.8v29.6H1791.5z"/>
	<path d="M392.2,493.6c-5.6,0-10.8-1.4-15.4-4.2c-4.7-2.8-8.4-6.6-11.2-11.2c-2.8-4.7-4.2-9.8-4.2-15.4v-12.2h29.3v10.9
		c0,0.7,0.3,1.4,0.8,1.9c0.5,0.5,1.1,0.8,1.9,0.8h95.8c0.7,0,1.4-0.3,1.9-0.8c0.5-0.5,0.8-1.1,0.8-1.9v-30.4c0-0.7-0.3-1.3-0.8-1.8
		c-0.5-0.4-1.1-0.7-1.9-0.7h-96.9c-5.6,0-10.8-1.4-15.4-4.2c-4.7-2.8-8.4-6.6-11.2-11.2c-2.8-4.7-4.2-9.9-4.2-15.7v-32.9
		c0-5.6,1.4-10.8,4.2-15.4c2.8-4.7,6.6-8.4,11.2-11.2c4.7-2.8,9.8-4.2,15.4-4.2h98.2c5.6,0,10.8,1.4,15.4,4.2
		c4.7,2.8,8.4,6.6,11.2,11.2c2.8,4.7,4.2,9.8,4.2,15.4v12.2h-29.6v-10.9c0-0.7-0.3-1.4-0.8-1.9c-0.5-0.5-1.1-0.8-1.9-0.8h-95.8
		c-0.7,0-1.4,0.3-1.9,0.8c-0.5,0.5-0.8,1.1-0.8,1.9v30.4c0,0.7,0.3,1.3,0.8,1.8c0.5,0.4,1.1,0.7,1.9,0.7h97.1
		c5.6,0,10.8,1.4,15.4,4.2c4.7,2.8,8.4,6.6,11.2,11.2c2.8,4.7,4.2,9.9,4.2,15.7v32.9c0,5.6-1.4,10.8-4.2,15.4
		c-2.8,4.7-6.6,8.4-11.2,11.2c-4.7,2.8-9.8,4.2-15.4,4.2H392.2z"/>
	<path d="M568.2,493.6v-160h147.3v29.6H597.8v35.6h94.7v29.8h-94.7v35.6h117.8v29.6H568.2z"/>
	<path d="M760.2,493.6v-160h32.2l98.2,116.9V333.6h29.6v160H888l-98.4-117.1v117.1H760.2z"/>
	<path d="M967.6,493.6v-160h29.3v65.1h104.9v-65.1h29.3v160h-29.3v-65.1H996.9v65.1H967.6z"/>
	<path d="M1179.1,364.5c0-5.6,1.4-10.8,4.2-15.4c2.8-4.7,6.6-8.4,11.2-11.2c4.7-2.8,9.8-4.2,15.4-4.2h98c5.6,0,10.8,1.4,15.6,4.2
		c4.7,2.8,8.5,6.6,11.3,11.2c2.8,4.7,4.2,9.8,4.2,15.4v129.1h-29.6v-53.8h-101.1v53.8h-29.3V364.5z M1309.6,410.5v-44.7
		c0-0.7-0.3-1.4-0.9-1.9c-0.6-0.5-1.3-0.8-2-0.8h-95.6c-0.7,0-1.4,0.3-1.9,0.8c-0.5,0.5-0.8,1.1-0.8,1.9v44.7H1309.6z"/>
	<path d="M1416.9,493.6c-5.6,0-10.8-1.4-15.4-4.2c-4.7-2.8-8.4-6.6-11.2-11.2c-2.8-4.7-4.2-9.8-4.2-15.4v-12.2h29.3v10.9
		c0,0.7,0.3,1.4,0.8,1.9c0.5,0.5,1.1,0.8,1.9,0.8h95.8c0.7,0,1.4-0.3,1.9-0.8c0.5-0.5,0.8-1.1,0.8-1.9v-30.4c0-0.7-0.3-1.3-0.8-1.8
		c-0.5-0.4-1.1-0.7-1.9-0.7h-96.9c-5.6,0-10.8-1.4-15.4-4.2c-4.7-2.8-8.4-6.6-11.2-11.2c-2.8-4.7-4.2-9.9-4.2-15.7v-32.9
		c0-5.6,1.4-10.8,4.2-15.4c2.8-4.7,6.6-8.4,11.2-11.2c4.7-2.8,9.8-4.2,15.4-4.2h98.2c5.6,0,10.8,1.4,15.4,4.2
		c4.7,2.8,8.4,6.6,11.2,11.2c2.8,4.7,4.2,9.8,4.2,15.4v12.2h-29.6v-10.9c0-0.7-0.3-1.4-0.8-1.9c-0.5-0.5-1.1-0.8-1.9-0.8H1418
		c-0.7,0-1.4,0.3-1.9,0.8c-0.5,0.5-0.8,1.1-0.8,1.9v30.4c0,0.7,0.3,1.3,0.8,1.8c0.5,0.4,1.1,0.7,1.9,0.7h97.1
		c5.6,0,10.8,1.4,15.4,4.2c4.7,2.8,8.4,6.6,11.2,11.2c2.8,4.7,4.2,9.9,4.2,15.7v32.9c0,5.6-1.4,10.8-4.2,15.4
		c-2.8,4.7-6.6,8.4-11.2,11.2c-4.7,2.8-9.8,4.2-15.4,4.2H1416.9z"/>
	<path d="M1176.8,157.6c0-7.6-6.7-13.7-15-13.7c-8.3,0-15,6.1-15,13.7c0,4.9,2.8,9.2,7,11.6l-7,31h30l-8.3-30.4
		C1173.4,167.5,1176.8,162.9,1176.8,157.6z"/>
</g>
</svg>
