<svg width="32" height="32" viewBox="0 0 32 32" fill="none" xmlns="http://www.w3.org/2000/svg">
<path d="M25.4719 13.6668C25.104 13.0697 24.6047 12.5996 24.0003 12.2439C23.8032 12.1295 23.5929 12.0279 23.3696 11.9516V8.16557C23.3696 4.21434 19.7561 1 15.3148 1C10.8735 1 7.26005 4.21434 7.26005 8.16557V12.1041C7.18121 12.1422 7.10238 12.1803 7.02354 12.2311C6.40597 12.5869 5.91978 13.0697 5.55187 13.6541C5.18395 14.2512 5 14.8992 5 15.6107V28.0869C5 28.7984 5.18395 29.459 5.55187 30.0434C5.91978 30.6406 6.41911 31.1107 7.02354 31.4664C7.64112 31.8221 8.31126 32 9.04709 32H21.9504C22.6863 32 23.3696 31.8221 23.974 31.4664C24.5916 31.1107 25.0777 30.6279 25.4456 30.0434C25.8136 29.459 25.9975 28.7984 25.9975 28.0869V15.6107C26.0238 14.9119 25.8399 14.2512 25.4719 13.6668ZM11.0181 8.16557C11.0181 6.1582 12.9365 4.53197 15.3148 4.53197C17.68 4.53197 19.6115 6.1582 19.6115 8.16557V11.6975H11.0312V8.16557H11.0181ZM22.1344 27.9344C22.1344 28.0361 22.095 28.1123 22.0161 28.1758C21.9373 28.2393 21.8453 28.2775 21.7533 28.2775H9.20476C9.11278 28.2775 9.0208 28.2393 8.9551 28.1758C8.8894 28.1123 8.84999 28.0361 8.84999 27.9344V15.7885C8.84999 15.6996 8.8894 15.6107 8.9551 15.5471C9.0208 15.4836 9.11278 15.4455 9.20476 15.4455H21.7665C21.8585 15.4455 21.9504 15.4836 22.0293 15.5471C22.1081 15.6107 22.1475 15.6869 22.1475 15.7885V27.9344H22.1344Z" fill="#2AB2FF"/>
<path d="M18 19.9467C18 18.8668 17.1067 18 16 18C14.8933 18 14 18.8668 14 19.9467C14 20.643 14.3733 21.254 14.9333 21.595L14 26H18L16.8933 21.6803C17.5467 21.3535 18 20.6998 18 19.9467Z" fill="#2AB2FF"/>
</svg>
