<svg width="560" height="141" viewBox="0 0 560 141" fill="none" xmlns="http://www.w3.org/2000/svg">
<path d="M25.7881 71.0887C24.2201 71.0887 22.7641 70.6962 21.4761 69.9113C20.1601 69.1264 19.1241 68.0612 18.3401 66.7718C17.5561 65.4543 17.1641 64.0246 17.1641 62.4549V34.9276C17.1641 33.3578 17.5561 31.9002 18.3401 30.6107C19.1241 29.2932 20.1881 28.256 21.4761 27.4712C22.7921 26.6863 24.2201 26.2938 25.7881 26.2938H53.2281C54.7961 26.2938 56.2521 26.6863 57.5961 27.4712C58.9121 28.256 59.9761 29.3213 60.7601 30.6107C61.5441 31.9282 61.9361 33.3578 61.9361 34.9276V38.4036H53.6481V35.292C53.6481 35.0958 53.5641 34.8996 53.3961 34.7594C53.2281 34.6193 53.0321 34.5352 52.8361 34.5352H26.0961C25.9001 34.5352 25.7041 34.6193 25.5641 34.7594C25.4241 34.8996 25.3401 35.0678 25.3401 35.292V62.0904C25.3401 62.2867 25.4241 62.4829 25.5641 62.623C25.7041 62.7632 25.8721 62.8473 26.0961 62.8473H52.8641C53.0601 62.8473 53.2561 62.7632 53.4241 62.623C53.5921 62.4829 53.6761 62.3147 53.6761 62.0904V53.9893H43.5401V45.6918H61.9641V62.4549C61.9641 64.0246 61.5721 65.4823 60.7881 66.7718C60.0041 68.0892 58.9401 69.1264 57.6241 69.9113C56.3081 70.6962 54.8521 71.0887 53.2561 71.0887H25.7881Z" fill="white"/>
<path d="M75.124 71.0887V26.2378H116.368V34.5352H83.412V44.5145H109.928V52.868H83.412V62.8473H116.396V71.1447H75.124V71.0887Z" fill="white"/>
<path d="M128.884 71.0887V26.2938H164.976C166.544 26.2938 168 26.6863 169.344 27.4712C170.66 28.256 171.724 29.3213 172.508 30.6107C173.292 31.9282 173.684 33.3578 173.684 34.9276V47.0093C173.684 48.5791 173.292 50.0368 172.508 51.3823C171.724 52.6998 170.66 53.765 169.344 54.5219C168.028 55.2787 166.572 55.6712 164.976 55.6712L137.088 55.7272V71.0606H128.884V71.0887ZM137.844 47.4298H164.612C164.808 47.4298 165.004 47.3737 165.172 47.2336C165.34 47.1215 165.424 46.9533 165.424 46.729V35.264C165.424 35.0678 165.34 34.8716 165.172 34.7314C165.004 34.5912 164.808 34.5071 164.612 34.5071H137.844C137.648 34.5071 137.452 34.5912 137.312 34.7314C137.172 34.8716 137.088 35.0397 137.088 35.264V46.729C137.088 46.9252 137.172 47.0934 137.312 47.2336C137.452 47.3457 137.648 47.4298 137.844 47.4298ZM164.612 71.0887L151.116 54.9423H161.868L173.572 68.762V71.0606H164.612V71.0887Z" fill="white"/>
<path d="M186.564 34.8996C186.564 33.3298 186.956 31.8722 187.74 30.5827C188.524 29.2652 189.588 28.228 190.876 27.4431C192.192 26.6582 193.62 26.2658 195.188 26.2658H222.628C224.196 26.2658 225.652 26.6582 226.996 27.4431C228.312 28.228 229.376 29.2932 230.16 30.5827C230.944 31.9002 231.336 33.3298 231.336 34.8996V71.0887H223.048V56.0075H194.796V71.0887H186.592V34.8996H186.564ZM223.104 47.7942V35.264C223.104 35.0678 223.02 34.8716 222.852 34.7314C222.684 34.5912 222.488 34.5071 222.292 34.5071H195.524C195.328 34.5071 195.132 34.5912 194.992 34.7314C194.852 34.8716 194.768 35.0398 194.768 35.264V47.7942H223.104Z" fill="white"/>
<path d="M244.804 71.0887V26.2378H280.896C282.464 26.2378 283.92 26.6302 285.264 27.4151C286.58 28.2 287.644 29.2652 288.428 30.5547C289.212 31.8722 289.604 33.3018 289.604 34.8716V62.3988C289.604 63.9686 289.212 65.4262 288.428 66.7157C287.644 68.0332 286.58 69.0704 285.264 69.8553C283.948 70.6401 282.492 71.0326 280.896 71.0326H244.804V71.0887ZM253.708 62.8193H280.532C280.728 62.8193 280.924 62.7352 281.092 62.595C281.26 62.4549 281.344 62.2867 281.344 62.0624V35.264C281.344 35.0678 281.26 34.8716 281.092 34.7314C280.924 34.5912 280.728 34.5071 280.532 34.5071H253.708C253.512 34.5071 253.316 34.5912 253.176 34.7314C253.036 34.8716 252.952 35.0398 252.952 35.264V62.0624C252.952 62.2586 253.036 62.4549 253.176 62.595C253.316 62.7352 253.512 62.8193 253.708 62.8193Z" fill="white"/>
<path d="M346.304 30.5827C345.52 29.2652 344.456 28.228 343.168 27.4431C342.748 27.1908 342.3 26.9666 341.824 26.7984V18.4449C341.824 9.72703 334.124 2.63498 324.66 2.63498C315.196 2.63498 307.496 9.72703 307.496 18.4449V27.1348C307.328 27.2189 307.16 27.303 306.992 27.4151C305.676 28.2 304.64 29.2652 303.856 30.5547C303.072 31.8722 302.68 33.3018 302.68 34.8716V62.3988C302.68 63.9686 303.072 65.4262 303.856 66.7157C304.64 68.0332 305.704 69.0704 306.992 69.8553C308.308 70.6401 309.736 71.0326 311.304 71.0326H338.8C340.368 71.0326 341.824 70.6401 343.112 69.8553C344.428 69.0704 345.464 68.0052 346.248 66.7157C347.032 65.4262 347.424 63.9686 347.424 62.3988V34.8716C347.48 33.3298 347.088 31.8722 346.304 30.5827ZM315.504 18.4449C315.504 14.0159 319.592 10.4278 324.66 10.4278C329.7 10.4278 333.816 14.0159 333.816 18.4449V26.2378H315.532V18.4449H315.504ZM339.192 62.0624C339.192 62.2867 339.108 62.4549 338.94 62.595C338.772 62.7352 338.576 62.8193 338.38 62.8193H311.64C311.444 62.8193 311.248 62.7352 311.108 62.595C310.968 62.4549 310.884 62.2867 310.884 62.0624V35.264C310.884 35.0678 310.968 34.8716 311.108 34.7314C311.248 34.5912 311.444 34.5071 311.64 34.5071H338.408C338.604 34.5071 338.8 34.5912 338.968 34.7314C339.136 34.8716 339.22 35.0397 339.22 35.264V62.0624H339.192Z" fill="#2AB2FF"/>
<path d="M360.556 71.0887V26.2938H396.648C398.216 26.2938 399.672 26.6863 401.016 27.4712C402.332 28.256 403.396 29.3213 404.18 30.6107C404.964 31.9282 405.356 33.3578 405.356 34.9276V47.0093C405.356 48.5791 404.964 50.0368 404.18 51.3823C403.396 52.6998 402.332 53.765 401.016 54.5219C399.7 55.2787 398.244 55.6712 396.648 55.6712L368.76 55.7272V71.0606H360.556V71.0887ZM369.516 47.4298H396.284C396.48 47.4298 396.676 47.3737 396.844 47.2336C397.012 47.1215 397.096 46.9533 397.096 46.729V35.264C397.096 35.0678 397.012 34.8716 396.844 34.7314C396.676 34.5912 396.48 34.5071 396.284 34.5071H369.516C369.32 34.5071 369.124 34.5912 368.984 34.7314C368.844 34.8716 368.76 35.0397 368.76 35.264V46.729C368.76 46.9252 368.844 47.0934 368.984 47.2336C369.124 47.3457 369.292 47.4298 369.516 47.4298ZM396.256 71.0887L382.76 54.9423H393.512L405.216 68.762V71.0606H396.256V71.0887Z" fill="white"/>
<path d="M443.492 71.0887V26.2378H479.584C481.152 26.2378 482.608 26.6302 483.952 27.4151C485.268 28.2 486.332 29.2652 487.116 30.5547C487.9 31.8722 488.292 33.3018 488.292 34.8716V62.3988C488.292 63.9686 487.9 65.4262 487.116 66.7157C486.332 68.0332 485.268 69.0704 483.952 69.8553C482.636 70.6401 481.18 71.0326 479.584 71.0326H443.492V71.0887ZM452.396 62.8193H479.22C479.416 62.8193 479.612 62.7352 479.78 62.595C479.948 62.4549 480.032 62.2867 480.032 62.0624V35.264C480.032 35.0678 479.948 34.8716 479.78 34.7314C479.612 34.5912 479.416 34.5071 479.22 34.5071H452.396C452.2 34.5071 452.004 34.5912 451.864 34.7314C451.724 34.8716 451.64 35.0398 451.64 35.264V62.0624C451.64 62.2586 451.724 62.4549 451.864 62.595C452.004 62.7352 452.172 62.8193 452.396 62.8193Z" fill="white"/>
<path d="M501.62 71.0887V26.2378H542.864V34.5352H509.88V44.5145H536.396V52.868H509.88V62.8473H542.864V71.1447H501.62V71.0887Z" fill="white"/>
<path d="M109.816 138.365C108.248 138.365 106.792 137.973 105.504 137.188C104.188 136.403 103.152 135.338 102.368 134.048C101.584 132.731 101.192 131.301 101.192 129.731V126.311H109.396V129.367C109.396 129.563 109.48 129.759 109.62 129.899C109.76 130.04 109.928 130.124 110.152 130.124H136.976C137.172 130.124 137.368 130.04 137.508 129.899C137.648 129.759 137.732 129.591 137.732 129.367V120.845C137.732 120.649 137.648 120.481 137.508 120.341C137.368 120.228 137.2 120.144 136.976 120.144H109.844C108.276 120.144 106.82 119.752 105.532 118.967C104.216 118.182 103.18 117.117 102.396 115.827C101.612 114.51 101.22 113.052 101.22 111.426V102.204C101.22 100.634 101.612 99.1765 102.396 97.8871C103.18 96.5696 104.244 95.5324 105.532 94.7475C106.848 93.9626 108.276 93.5702 109.844 93.5702H137.34C138.908 93.5702 140.364 93.9626 141.652 94.7475C142.968 95.5324 144.004 96.5976 144.788 97.8871C145.572 99.2046 145.964 100.634 145.964 102.204V105.624H137.676V102.568C137.676 102.372 137.592 102.176 137.452 102.036C137.312 101.896 137.144 101.812 136.92 101.812H110.096C109.9 101.812 109.704 101.896 109.564 102.036C109.424 102.176 109.34 102.344 109.34 102.568V111.09C109.34 111.286 109.424 111.454 109.564 111.595C109.704 111.707 109.872 111.791 110.096 111.791H137.284C138.852 111.791 140.308 112.183 141.596 112.968C142.912 113.753 143.948 114.818 144.732 116.108C145.516 117.425 145.908 118.883 145.908 120.509V129.731C145.908 131.301 145.516 132.759 144.732 134.048C143.948 135.366 142.884 136.403 141.596 137.188C140.28 137.973 138.852 138.365 137.284 138.365H109.816Z" fill="white"/>
<path d="M159.096 138.365V93.5141H200.34V101.812H167.384V111.791H193.9V120.144H167.384V130.124H200.368V138.421H159.096V138.365Z" fill="white"/>
<path d="M212.856 138.365V93.5141H221.872L249.368 126.283V93.5141H257.656V138.365H248.64L221.088 105.54V138.365H212.856Z" fill="white"/>
<path d="M270.928 138.365V93.5141H279.132V111.763H308.504V93.5141H316.708V138.365H308.504V120.116H279.132V138.365H270.928Z" fill="white"/>
<path d="M330.148 102.176C330.148 100.606 330.54 99.1485 331.324 97.859C332.108 96.5415 333.172 95.5044 334.46 94.7195C335.776 93.9346 337.204 93.5421 338.772 93.5421H366.212C367.78 93.5421 369.236 93.9346 370.58 94.7195C371.896 95.5044 372.96 96.5696 373.744 97.859C374.528 99.1765 374.92 100.606 374.92 102.176V138.365H366.632V123.284H338.324V138.365H330.12V102.176H330.148ZM366.688 115.071V102.54C366.688 102.344 366.604 102.148 366.436 102.008C366.268 101.868 366.072 101.783 365.876 101.783H339.108C338.912 101.783 338.716 101.868 338.576 102.008C338.436 102.148 338.352 102.316 338.352 102.54V115.071H366.688Z" fill="white"/>
<path d="M396.732 138.365C395.164 138.365 393.708 137.973 392.42 137.188C391.104 136.403 390.068 135.338 389.284 134.048C388.5 132.731 388.108 131.301 388.108 129.731V126.311H396.312V129.367C396.312 129.563 396.396 129.759 396.536 129.899C396.676 130.04 396.844 130.124 397.068 130.124H423.892C424.088 130.124 424.284 130.04 424.424 129.899C424.564 129.759 424.648 129.591 424.648 129.367V120.845C424.648 120.649 424.564 120.481 424.424 120.341C424.284 120.228 424.116 120.144 423.892 120.144H396.76C395.192 120.144 393.736 119.752 392.448 118.967C391.132 118.182 390.096 117.117 389.312 115.827C388.528 114.51 388.136 113.052 388.136 111.426V102.204C388.136 100.634 388.528 99.1765 389.312 97.8871C390.096 96.5696 391.16 95.5324 392.448 94.7475C393.764 93.9626 395.192 93.5702 396.76 93.5702H424.256C425.824 93.5702 427.28 93.9626 428.568 94.7475C429.884 95.5324 430.92 96.5976 431.704 97.8871C432.488 99.2046 432.88 100.634 432.88 102.204V105.624H424.592V102.568C424.592 102.372 424.508 102.176 424.368 102.036C424.228 101.896 424.06 101.812 423.836 101.812H397.04C396.844 101.812 396.648 101.896 396.508 102.036C396.368 102.176 396.284 102.344 396.284 102.568V111.09C396.284 111.286 396.368 111.454 396.508 111.595C396.648 111.707 396.816 111.791 397.04 111.791H424.228C425.796 111.791 427.252 112.183 428.54 112.968C429.856 113.753 430.892 114.818 431.676 116.108C432.46 117.425 432.852 118.883 432.852 120.509V129.731C432.852 131.301 432.46 132.759 431.676 134.048C430.892 135.366 429.828 136.403 428.54 137.188C427.224 137.973 425.796 138.365 424.228 138.365H396.732Z" fill="white"/>
<path d="M329.504 44.1781C329.504 42.0477 327.628 40.3378 325.304 40.3378C322.98 40.3378 321.104 42.0477 321.104 44.1781C321.104 45.5517 321.888 46.7571 323.064 47.4298L321.104 56.1197H329.504L327.18 47.598C328.552 46.9533 329.504 45.6638 329.504 44.1781Z" fill="#2AB2FF"/>
</svg>
