<svg width="509" height="125" viewBox="0 0 509 125" fill="none" xmlns="http://www.w3.org/2000/svg">
<path d="M23.4394 63.0219C22.0142 63.0219 20.6908 62.6739 19.5201 61.9781C18.324 61.2823 17.3823 60.338 16.6697 59.1948C15.9571 58.0268 15.6008 56.7594 15.6008 55.3678V30.9642C15.6008 29.5726 15.9571 28.2803 16.6697 27.1372C17.3823 25.9692 18.3494 25.0497 19.5201 24.3539C20.7163 23.658 22.0142 23.3101 23.4394 23.3101H48.3804C49.8056 23.3101 51.129 23.658 52.3506 24.3539C53.5468 25.0497 54.5139 25.994 55.2265 27.1372C55.9391 28.3052 56.2954 29.5726 56.2954 30.9642V34.0457H48.7622V31.2873C48.7622 31.1133 48.6858 30.9394 48.5331 30.8151C48.3804 30.6908 48.2023 30.6163 48.0241 30.6163H23.7194C23.5412 30.6163 23.3631 30.6908 23.2358 30.8151C23.1086 30.9394 23.0322 31.0885 23.0322 31.2873V55.0447C23.0322 55.2187 23.1086 55.3926 23.2358 55.5169C23.3631 55.6411 23.5158 55.7157 23.7194 55.7157H48.0496C48.2277 55.7157 48.4059 55.6411 48.5586 55.5169C48.7113 55.3926 48.7876 55.2435 48.7876 55.0447V47.8628H39.5747V40.507H56.3208V55.3678C56.3208 56.7594 55.9645 58.0517 55.2519 59.1948C54.5393 60.3628 53.5722 61.2823 52.3761 61.9781C51.1799 62.6739 49.8565 63.0219 48.4059 63.0219H23.4394Z" fill="white"/>
<path d="M68.2822 63.0219V23.2604H105.77V30.6163H75.8154V39.4632H99.9166V46.8688H75.8154V55.7157H105.796V63.0716H68.2822V63.0219Z" fill="white"/>
<path d="M117.146 63.0219V23.3101H149.951C151.376 23.3101 152.7 23.658 153.921 24.3539C155.118 25.0497 156.085 25.994 156.797 27.1372C157.51 28.3052 157.866 29.5726 157.866 30.9642V41.6749C157.866 43.0666 157.51 44.3588 156.797 45.5517C156.085 46.7197 155.118 47.664 153.921 48.335C152.725 49.006 151.402 49.3539 149.951 49.3539L124.603 49.4036V62.997H117.146V63.0219ZM125.29 42.0477H149.62C149.799 42.0477 149.977 41.998 150.129 41.8738C150.282 41.7743 150.358 41.6252 150.358 41.4264V31.2624C150.358 31.0885 150.282 30.9145 150.129 30.7903C149.977 30.666 149.799 30.5914 149.62 30.5914H125.29C125.112 30.5914 124.934 30.666 124.807 30.7903C124.679 30.9145 124.603 31.0636 124.603 31.2624V41.4264C124.603 41.6004 124.679 41.7495 124.807 41.8738C124.934 41.9732 125.112 42.0477 125.29 42.0477ZM149.62 63.0219L137.354 48.7077H147.126L157.764 60.9592V62.997H149.62V63.0219Z" fill="white"/>
<path d="M169.573 30.9394C169.573 29.5477 169.93 28.2555 170.642 27.1123C171.355 25.9443 172.322 25.0249 173.493 24.329C174.689 23.6332 175.987 23.2853 177.412 23.2853H202.353C203.778 23.2853 205.101 23.6332 206.323 24.329C207.519 25.0249 208.486 25.9692 209.199 27.1123C209.911 28.2803 210.268 29.5477 210.268 30.9394V63.0219H202.735V49.6521H177.056V63.0219H169.599V30.9394H169.573ZM202.785 42.3708V31.2624C202.785 31.0885 202.709 30.9145 202.556 30.7903C202.404 30.666 202.226 30.5915 202.047 30.5915H177.717C177.539 30.5915 177.361 30.666 177.234 30.7903C177.106 30.9145 177.03 31.0636 177.03 31.2624V42.3708H202.785Z" fill="white"/>
<path d="M222.509 63.0219V23.2604H255.314C256.74 23.2604 258.063 23.6084 259.285 24.3042C260.481 25 261.448 25.9443 262.16 27.0875C262.873 28.2555 263.229 29.5229 263.229 30.9145V55.3181C263.229 56.7097 262.873 58.002 262.16 59.1451C261.448 60.3131 260.481 61.2326 259.285 61.9284C258.088 62.6243 256.765 62.9722 255.314 62.9722H222.509V63.0219ZM230.602 55.6909H254.983C255.162 55.6909 255.34 55.6163 255.492 55.492C255.645 55.3678 255.722 55.2187 255.722 55.0199V31.2624C255.722 31.0885 255.645 30.9145 255.492 30.7903C255.34 30.666 255.162 30.5915 254.983 30.5915H230.602C230.424 30.5915 230.246 30.666 230.119 30.7903C229.992 30.9145 229.915 31.0636 229.915 31.2624V55.0199C229.915 55.1938 229.992 55.3678 230.119 55.492C230.246 55.6163 230.424 55.6909 230.602 55.6909Z" fill="white"/>
<path d="M314.766 27.1123C314.053 25.9443 313.086 25.0248 311.915 24.329C311.533 24.1054 311.126 23.9066 310.694 23.7575V16.3519C310.694 8.62326 303.695 2.33598 295.093 2.33598C286.491 2.33598 279.492 8.62326 279.492 16.3519V24.0557C279.339 24.1302 279.187 24.2048 279.034 24.3042C277.838 25 276.896 25.9443 276.183 27.0875C275.471 28.2555 275.115 29.5229 275.115 30.9145V55.3181C275.115 56.7097 275.471 58.002 276.183 59.1451C276.896 60.3131 277.863 61.2326 279.034 61.9284C280.23 62.6243 281.528 62.9722 282.953 62.9722H307.945C309.37 62.9722 310.694 62.6243 311.864 61.9284C313.06 61.2326 314.002 60.2883 314.715 59.1451C315.427 58.002 315.784 56.7097 315.784 55.3181V30.9145C315.835 29.5477 315.478 28.2555 314.766 27.1123ZM286.771 16.3519C286.771 12.4254 290.486 9.24453 295.093 9.24453C299.674 9.24453 303.415 12.4254 303.415 16.3519V23.2604H286.796V16.3519H286.771ZM308.301 55.0199C308.301 55.2187 308.225 55.3678 308.072 55.492C307.92 55.6163 307.741 55.6909 307.563 55.6909H283.259C283.08 55.6909 282.902 55.6163 282.775 55.492C282.648 55.3678 282.571 55.2187 282.571 55.0199V31.2624C282.571 31.0885 282.648 30.9145 282.775 30.7903C282.902 30.666 283.08 30.5914 283.259 30.5914H307.589C307.767 30.5914 307.945 30.666 308.098 30.7903C308.25 30.9145 308.327 31.0636 308.327 31.2624V55.0199H308.301Z" fill="#2AB2FF"/>
<path d="M327.72 63.0219V23.3101H360.525C361.95 23.3101 363.273 23.658 364.495 24.3539C365.691 25.0497 366.658 25.994 367.371 27.1372C368.083 28.3052 368.44 29.5726 368.44 30.9642V41.6749C368.44 43.0666 368.083 44.3588 367.371 45.5517C366.658 46.7197 365.691 47.664 364.495 48.335C363.299 49.006 361.975 49.3539 360.525 49.3539L335.177 49.4036V62.997H327.72V63.0219ZM335.864 42.0477H360.194C360.372 42.0477 360.55 41.998 360.703 41.8738C360.856 41.7743 360.932 41.6252 360.932 41.4264V31.2624C360.932 31.0885 360.856 30.9145 360.703 30.7903C360.55 30.666 360.372 30.5914 360.194 30.5914H335.864C335.686 30.5914 335.507 30.666 335.38 30.7903C335.253 30.9145 335.177 31.0636 335.177 31.2624V41.4264C335.177 41.6004 335.253 41.7495 335.38 41.8738C335.507 41.9732 335.66 42.0477 335.864 42.0477ZM360.168 63.0219L347.902 48.7077H357.674L368.312 60.9592V62.997H360.168V63.0219Z" fill="white"/>
<path d="M403.103 63.0219V23.2604H435.908C437.333 23.2604 438.656 23.6084 439.878 24.3042C441.074 25 442.041 25.9443 442.754 27.0875C443.466 28.2555 443.823 29.5229 443.823 30.9145V55.3181C443.823 56.7097 443.466 58.002 442.754 59.1451C442.041 60.3131 441.074 61.2326 439.878 61.9284C438.682 62.6243 437.358 62.9722 435.908 62.9722H403.103V63.0219ZM411.196 55.6909H435.577C435.755 55.6909 435.933 55.6163 436.086 55.492C436.238 55.3678 436.315 55.2187 436.315 55.0199V31.2624C436.315 31.0885 436.238 30.9145 436.086 30.7903C435.933 30.666 435.755 30.5915 435.577 30.5915H411.196C411.017 30.5915 410.839 30.666 410.712 30.7903C410.585 30.9145 410.508 31.0636 410.508 31.2624V55.0199C410.508 55.1938 410.585 55.3678 410.712 55.492C410.839 55.6163 410.992 55.6909 411.196 55.6909Z" fill="white"/>
<path d="M455.937 63.0219V23.2604H493.425V30.6163H463.445V39.4632H487.546V46.8688H463.445V55.7157H493.425V63.0716H455.937V63.0219Z" fill="white"/>
<path d="M99.8149 122.664C98.3897 122.664 97.0663 122.316 95.8956 121.62C94.6995 120.924 93.7578 119.98 93.0452 118.837C92.3326 117.669 91.9763 116.402 91.9763 115.01V111.978H99.4332V114.687C99.4332 114.861 99.5095 115.035 99.6368 115.159C99.764 115.283 99.9167 115.358 100.12 115.358H124.501C124.68 115.358 124.858 115.283 124.985 115.159C125.112 115.035 125.189 114.886 125.189 114.687V107.132C125.189 106.958 125.112 106.809 124.985 106.685C124.858 106.585 124.705 106.511 124.501 106.511H99.8404C98.4152 106.511 97.0918 106.163 95.9211 105.467C94.7249 104.771 93.7833 103.827 93.0707 102.684C92.3581 101.516 92.0018 100.224 92.0018 98.7823V90.6064C92.0018 89.2147 92.3581 87.9225 93.0707 86.7793C93.7833 85.6113 94.7504 84.6918 95.9211 83.996C97.1172 83.3002 98.4152 82.9523 99.8404 82.9523H124.832C126.257 82.9523 127.581 83.3002 128.752 83.996C129.948 84.6918 130.889 85.6362 131.602 86.7793C132.315 87.9473 132.671 89.2147 132.671 90.6064V93.6382H125.138V90.9294C125.138 90.7555 125.061 90.5815 124.934 90.4572C124.807 90.333 124.654 90.2584 124.451 90.2584H100.069C99.8913 90.2584 99.7131 90.333 99.5859 90.4572C99.4586 90.5815 99.3823 90.7306 99.3823 90.9294V98.4841C99.3823 98.658 99.4586 98.8071 99.5859 98.9314C99.7131 99.0308 99.8658 99.1054 100.069 99.1054H124.781C126.207 99.1054 127.53 99.4533 128.701 100.149C129.897 100.845 130.838 101.789 131.551 102.932C132.264 104.1 132.62 105.393 132.62 106.834V115.01C132.62 116.402 132.264 117.694 131.551 118.837C130.838 120.005 129.871 120.924 128.701 121.62C127.505 122.316 126.207 122.664 124.781 122.664H99.8149Z" fill="white"/>
<path d="M144.607 122.664V82.9026H182.095V90.2585H152.14V99.1054H176.241V106.511H152.14V115.358H182.12V122.714H144.607V122.664Z" fill="white"/>
<path d="M193.471 122.664V82.9026H201.666L226.658 111.953V82.9026H234.191V122.664H225.996L200.953 93.5636V122.664H193.471Z" fill="white"/>
<path d="M246.254 122.664V82.9026H253.711V99.0805H280.408V82.9026H287.865V122.664H280.408V106.486H253.711V122.664H246.254Z" fill="white"/>
<path d="M300.081 90.5815C300.081 89.1899 300.437 87.8976 301.15 86.7545C301.862 85.5865 302.829 84.667 304 83.9712C305.196 83.2754 306.494 82.9274 307.919 82.9274H332.86C334.286 82.9274 335.609 83.2754 336.831 83.9712C338.027 84.667 338.994 85.6113 339.707 86.7545C340.419 87.9225 340.775 89.1899 340.775 90.5815V122.664H333.242V109.294H307.512V122.664H300.055V90.5815H300.081ZM333.293 102.013V90.9046C333.293 90.7306 333.217 90.5567 333.064 90.4324C332.911 90.3082 332.733 90.2336 332.555 90.2336H308.225C308.047 90.2336 307.869 90.3082 307.741 90.4324C307.614 90.5567 307.538 90.7058 307.538 90.9046V102.013H333.293Z" fill="white"/>
<path d="M360.601 122.664C359.176 122.664 357.852 122.316 356.682 121.62C355.486 120.924 354.544 119.98 353.831 118.837C353.119 117.669 352.762 116.402 352.762 115.01V111.978H360.219V114.687C360.219 114.861 360.296 115.035 360.423 115.159C360.55 115.283 360.703 115.358 360.906 115.358H385.288C385.466 115.358 385.644 115.283 385.771 115.159C385.898 115.035 385.975 114.886 385.975 114.687V107.132C385.975 106.958 385.898 106.809 385.771 106.685C385.644 106.585 385.491 106.511 385.288 106.511H360.627C359.201 106.511 357.878 106.163 356.707 105.467C355.511 104.771 354.569 103.827 353.857 102.684C353.144 101.516 352.788 100.224 352.788 98.7823V90.6064C352.788 89.2147 353.144 87.9225 353.857 86.7793C354.569 85.6113 355.537 84.6918 356.707 83.996C357.903 83.3002 359.201 82.9523 360.627 82.9523H385.618C387.044 82.9523 388.367 83.3002 389.538 83.996C390.734 84.6918 391.676 85.6362 392.388 86.7793C393.101 87.9473 393.457 89.2147 393.457 90.6064V93.6382H385.924V90.9294C385.924 90.7555 385.847 90.5815 385.72 90.4572C385.593 90.333 385.44 90.2584 385.237 90.2584H360.881C360.703 90.2584 360.525 90.333 360.397 90.4572C360.27 90.5815 360.194 90.7306 360.194 90.9294V98.4841C360.194 98.658 360.27 98.8071 360.397 98.9314C360.525 99.0308 360.677 99.1054 360.881 99.1054H385.593C387.018 99.1054 388.342 99.4533 389.512 100.149C390.708 100.845 391.65 101.789 392.363 102.932C393.075 104.1 393.432 105.393 393.432 106.834V115.01C393.432 116.402 393.075 117.694 392.363 118.837C391.65 120.005 390.683 120.924 389.512 121.62C388.316 122.316 387.018 122.664 385.593 122.664H360.601Z" fill="white"/>
<path d="M299.496 39.165C299.496 37.2763 297.79 35.7604 295.678 35.7604C293.566 35.7604 291.861 37.2763 291.861 39.165C291.861 40.3827 292.573 41.4513 293.642 42.0477L291.861 49.7515H299.496L297.383 42.1968C298.63 41.6253 299.496 40.4821 299.496 39.165Z" fill="#2AB2FF"/>
</svg>
